<svg width="512" height="512" viewBox="0 0 512 512" xmlns="http://www.w3.org/2000/svg">
  <defs>
    <linearGradient id="grad" x1="0" y1="0" x2="1" y2="1">
      <stop offset="0%" stop-color="#0A3A5A"/>
      <stop offset="100%" stop-color="#00D4FF"/>
    </linearGradient>
  </defs>

  <!-- Shield -->
  <path d="M256 32 L448 112 L448 272 C448 368 368 432 256 480 C144 432 64 368 64 272 L64 112 Z"
        fill="none" stroke="url(#grad)" stroke-width="20"/>

  <!-- Mask / chat -->
  <path d="M160 220 Q160 180 200 180 L320 180 Q360 180 360 220 L360 280 Q360 320 320 320 L240 320 L200 360 L200 320 Q160 320 160 280 Z"
        fill="#0A1A2A"/>

  <!-- Eyes -->
  <ellipse cx="220" cy="250" rx="28" ry="12" fill="#000"/>
  <ellipse cx="292" cy="250" rx="28" ry="12" fill="#000"/>

  <!-- Exclamation -->
  <rect x="350" y="160" width="20" height="60" rx="10" fill="url(#grad)"/>
  <circle cx="360" cy="240" r="10" fill="url(#grad)"/>
</svg>